{
    "asset" : {
        "generator" : "Khronos glTF Blender I/O v3.2.43",
        "version" : "2.0"
    },
    "scene" : 0,
    "scenes" : [
        {
            "name" : "Scene",
            "nodes" : [
                0,
                1,
                2
            ]
        }
    ],
    "nodes" : [
        {
            "mesh" : 0,
            "name" : "newNoteModel",
            "rotation" : [
                0.7071068286895752,
                0,
                0,
                0.7071067094802856
            ]
        },
        {
            "mesh" : 1,
            "name" : "newNoteModel.001",
            "rotation" : [
                0.7071068286895752,
                0,
                0,
                0.7071067094802856
            ]
        },
        {
            "mesh" : 2,
            "name" : "logo192",
            "rotation" : [
                0,
                -0.7071068286895752,
                0.7071068286895752,
                3.090862321641907e-08
            ],
            "scale" : [
                1.9867222309112549,
                1,
                1.9867222309112549
            ],
            "translation" : [
                0,
                4.018986225128174,
                -4.1660356521606445
            ]
        }
    ],
    "materials" : [
        {
            "doubleSided" : true,
            "name" : "base",
            "pbrMetallicRoughness" : {
                "baseColorFactor" : [
                    0.6151741743087769,
                    0.6151741743087769,
                    0.6151741743087769,
                    1
                ],
                "metallicFactor" : 0,
                "roughnessFactor" : 0.5
            }
        },
        {
            "doubleSided" : true,
            "name" : "touch",
            "pbrMetallicRoughness" : {
                "baseColorFactor" : [
                    0.2597965896129608,
                    0.2597965896129608,
                    0.2597965896129608,
                    1
                ],
                "metallicFactor" : 0,
                "roughnessFactor" : 0.5
            }
        },
        {
            "doubleSided" : true,
            "name" : "screen",
            "pbrMetallicRoughness" : {
                "baseColorTexture" : {
                    "index" : 0
                },
                "metallicFactor" : 0,
                "roughnessFactor" : 0.5
            }
        },
        {
            "doubleSided" : true,
            "name" : "keyboard",
            "pbrMetallicRoughness" : {
                "baseColorFactor" : [
                    0.039679113775491714,
                    0.039679113775491714,
                    0.039679113775491714,
                    1
                ],
                "metallicFactor" : 0,
                "roughnessFactor" : 0.5
            }
        },
        {
            "alphaMode" : "BLEND",
            "doubleSided" : true,
            "name" : "logo192",
            "pbrMetallicRoughness" : {
                "baseColorTexture" : {
                    "index" : 1
                },
                "metallicFactor" : 0,
                "roughnessFactor" : 0.5
            }
        }
    ],
    "meshes" : [
        {
            "name" : "newNoteModel",
            "primitives" : [
                {
                    "attributes" : {
                        "POSITION" : 0,
                        "NORMAL" : 1,
                        "TEXCOORD_0" : 2
                    },
                    "indices" : 3,
                    "material" : 0
                },
                {
                    "attributes" : {
                        "POSITION" : 4,
                        "NORMAL" : 5,
                        "TEXCOORD_0" : 6
                    },
                    "indices" : 7,
                    "material" : 1
                },
                {
                    "attributes" : {
                        "POSITION" : 8,
                        "NORMAL" : 9,
                        "TEXCOORD_0" : 10
                    },
                    "indices" : 11,
                    "material" : 2
                },
                {
                    "attributes" : {
                        "POSITION" : 12
                    },
                    "indices" : 13,
                    "material" : 0,
                    "mode" : 1
                }
            ]
        },
        {
            "name" : "newNoteModel.001",
            "primitives" : [
                {
                    "attributes" : {
                        "POSITION" : 14,
                        "NORMAL" : 15,
                        "TANGENT" : 16,
                        "TEXCOORD_0" : 17
                    },
                    "indices" : 18,
                    "material" : 3
                }
            ]
        },
        {
            "name" : "logo192",
            "primitives" : [
                {
                    "attributes" : {
                        "POSITION" : 19,
                        "NORMAL" : 20,
                        "TANGENT" : 21,
                        "TEXCOORD_0" : 22
                    },
                    "indices" : 23,
                    "material" : 4
                }
            ]
        }
    ],
    "textures" : [
        {
            "sampler" : 0,
            "source" : 0
        },
        {
            "sampler" : 1,
            "source" : 1
        }
    ],
    "images" : [
        {
            "bufferView" : 12,
            "mimeType" : "image/jpeg",
            "name" : "Screenshot 2022-08-12 195821"
        },
        {
            "bufferView" : 25,
            "mimeType" : "image/png",
            "name" : "logo192"
        }
    ],
    "accessors" : [
        {
            "bufferView" : 0,
            "componentType" : 5126,
            "count" : 168,
            "max" : [
                5,
                3,
                0
            ],
            "min" : [
                -5,
                -4.1406683921813965,
                -7.300000190734863
            ],
            "type" : "VEC3"
        },
        {
            "bufferView" : 1,
            "componentType" : 5126,
            "count" : 168,
            "type" : "VEC3"
        },
        {
            "bufferView" : 2,
            "componentType" : 5126,
            "count" : 168,
            "type" : "VEC2"
        },
        {
            "bufferView" : 3,
            "componentType" : 5123,
            "count" : 309,
            "type" : "SCALAR"
        },
        {
            "bufferView" : 4,
            "componentType" : 5126,
            "count" : 4,
            "max" : [
                2,
                2.700000047683716,
                -0.2511633634567261
            ],
            "min" : [
                -2,
                0.699999988079071,
                -0.2511633634567261
            ],
            "type" : "VEC3"
        },
        {
            "bufferView" : 5,
            "componentType" : 5126,
            "count" : 4,
            "type" : "VEC3"
        },
        {
            "bufferView" : 6,
            "componentType" : 5126,
            "count" : 4,
            "type" : "VEC2"
        },
        {
            "bufferView" : 7,
            "componentType" : 5123,
            "count" : 6,
            "type" : "SCALAR"
        },
        {
            "bufferView" : 8,
            "componentType" : 5126,
            "count" : 128,
            "max" : [
                5,
                0.09999989718198776,
                -0.10000000149011612
            ],
            "min" : [
                -5,
                -4.099999904632568,
                -7.199999809265137
            ],
            "type" : "VEC3"
        },
        {
            "bufferView" : 9,
            "componentType" : 5126,
            "count" : 128,
            "type" : "VEC3"
        },
        {
            "bufferView" : 10,
            "componentType" : 5126,
            "count" : 128,
            "type" : "VEC2"
        },
        {
            "bufferView" : 11,
            "componentType" : 5123,
            "count" : 192,
            "type" : "SCALAR"
        },
        {
            "bufferView" : 13,
            "componentType" : 5126,
            "count" : 30,
            "max" : [
                5,
                3,
                0
            ],
            "min" : [
                -5,
                -4.099999904632568,
                -7.300000190734863
            ],
            "type" : "VEC3"
        },
        {
            "bufferView" : 14,
            "componentType" : 5123,
            "count" : 34,
            "type" : "SCALAR"
        },
        {
            "bufferView" : 15,
            "componentType" : 5126,
            "count" : 294,
            "max" : [
                4,
                0.40000003576278687,
                -0.3095848560333252
            ],
            "min" : [
                -4,
                -3.299999952316284,
                -0.3095848560333252
            ],
            "type" : "VEC3"
        },
        {
            "bufferView" : 16,
            "componentType" : 5126,
            "count" : 294,
            "type" : "VEC3"
        },
        {
            "bufferView" : 17,
            "componentType" : 5126,
            "count" : 294,
            "type" : "VEC4"
        },
        {
            "bufferView" : 18,
            "componentType" : 5126,
            "count" : 294,
            "type" : "VEC2"
        },
        {
            "bufferView" : 19,
            "componentType" : 5123,
            "count" : 444,
            "type" : "SCALAR"
        },
        {
            "bufferView" : 20,
            "componentType" : 5126,
            "count" : 4,
            "max" : [
                0.5,
                0,
                0.5
            ],
            "min" : [
                -0.5,
                0,
                -0.5
            ],
            "type" : "VEC3"
        },
        {
            "bufferView" : 21,
            "componentType" : 5126,
            "count" : 4,
            "type" : "VEC3"
        },
        {
            "bufferView" : 22,
            "componentType" : 5126,
            "count" : 4,
            "type" : "VEC4"
        },
        {
            "bufferView" : 23,
            "componentType" : 5126,
            "count" : 4,
            "type" : "VEC2"
        },
        {
            "bufferView" : 24,
            "componentType" : 5123,
            "count" : 6,
            "type" : "SCALAR"
        }
    ],
    "bufferViews" : [
        {
            "buffer" : 0,
            "byteLength" : 2016,
            "byteOffset" : 0
        },
        {
            "buffer" : 0,
            "byteLength" : 2016,
            "byteOffset" : 2016
        },
        {
            "buffer" : 0,
            "byteLength" : 1344,
            "byteOffset" : 4032
        },
        {
            "buffer" : 0,
            "byteLength" : 618,
            "byteOffset" : 5376
        },
        {
            "buffer" : 0,
            "byteLength" : 48,
            "byteOffset" : 5996
        },
        {
            "buffer" : 0,
            "byteLength" : 48,
            "byteOffset" : 6044
        },
        {
            "buffer" : 0,
            "byteLength" : 32,
            "byteOffset" : 6092
        },
        {
            "buffer" : 0,
            "byteLength" : 12,
            "byteOffset" : 6124
        },
        {
            "buffer" : 0,
            "byteLength" : 1536,
            "byteOffset" : 6136
        },
        {
            "buffer" : 0,
            "byteLength" : 1536,
            "byteOffset" : 7672
        },
        {
            "buffer" : 0,
            "byteLength" : 1024,
            "byteOffset" : 9208
        },
        {
            "buffer" : 0,
            "byteLength" : 384,
            "byteOffset" : 10232
        },
        {
            "buffer" : 0,
            "byteLength" : 34717,
            "byteOffset" : 10616
        },
        {
            "buffer" : 0,
            "byteLength" : 360,
            "byteOffset" : 45336
        },
        {
            "buffer" : 0,
            "byteLength" : 68,
            "byteOffset" : 45696
        },
        {
            "buffer" : 0,
            "byteLength" : 3528,
            "byteOffset" : 45764
        },
        {
            "buffer" : 0,
            "byteLength" : 3528,
            "byteOffset" : 49292
        },
        {
            "buffer" : 0,
            "byteLength" : 4704,
            "byteOffset" : 52820
        },
        {
            "buffer" : 0,
            "byteLength" : 2352,
            "byteOffset" : 57524
        },
        {
            "buffer" : 0,
            "byteLength" : 888,
            "byteOffset" : 59876
        },
        {
            "buffer" : 0,
            "byteLength" : 48,
            "byteOffset" : 60764
        },
        {
            "buffer" : 0,
            "byteLength" : 48,
            "byteOffset" : 60812
        },
        {
            "buffer" : 0,
            "byteLength" : 64,
            "byteOffset" : 60860
        },
        {
            "buffer" : 0,
            "byteLength" : 32,
            "byteOffset" : 60924
        },
        {
            "buffer" : 0,
            "byteLength" : 12,
            "byteOffset" : 60956
        },
        {
            "buffer" : 0,
            "byteLength" : 5347,
            "byteOffset" : 60968
        }
    ],
    "samplers" : [
        {
            "magFilter" : 9729,
            "minFilter" : 9987
        },
        {
            "magFilter" : 9729,
            "minFilter" : 9987,
            "wrapS" : 33071,
            "wrapT" : 33071
        }
    ],
    "buffers" : [
        {
            "byteLength" : 66316,
            "uri" : "data:application/octet-stream;base64,"
        }
    ]
}
